<svg xmlns="http://www.w3.org/2000/svg" xml:space="preserve" width="192" height="192" data-version="2">
    <path fill="#3e5c44" d="m133.04 121.96 1.69-.31v22.33H61.12l.31-1.85q5.23 0 8.24-1 3-1 4.46-4.23 1.47-3.24 1.85-9.86.39-6.62.39-17.86v-38.2q0-11.24-.39-17.86-.38-6.62-1.85-9.93-1.46-3.31-4.46-4.32-3.01-1-8.24-1l-.31-1.69h41.43l-.31 1.69q-5.24 0-8.24 1-3 1.01-4.47 4.32-1.46 3.31-1.92 9.93-.46 6.62-.46 17.86v40.51q0 10.62.38 16.63.39 6 1.69 8.78 1.31 2.77 4.09 4 18.48 0 29.1-4.47 10.63-4.46 10.63-14.47" paint-order="stroke"/>
    <rect width="73.61" height="107.8" x="-36.805" y="-53.9" fill="none" rx="0" ry="0" transform="translate(98.425 90.58)"/>
</svg>
